<?xml version="1.0" encoding="UTF-8" standalone="no"?>
<!-- Created with Inkscape (http://www.inkscape.org/) -->

<svg
   xmlns:dc="http://purl.org/dc/elements/1.1/"
   xmlns:cc="http://creativecommons.org/ns#"
   xmlns:rdf="http://www.w3.org/1999/02/22-rdf-syntax-ns#"
   xmlns:svg="http://www.w3.org/2000/svg"
   xmlns="http://www.w3.org/2000/svg"
   xmlns:sodipodi="http://sodipodi.sourceforge.net/DTD/sodipodi-0.dtd"
   xmlns:inkscape="http://www.inkscape.org/namespaces/inkscape"
   width="744.09448819"
   height="1052.3622047"
   id="svg2"
   version="1.1"
   inkscape:version="0.48.4 r9939"
   sodipodi:docname="zifbox1a1.svg">
  <defs
     id="defs4">
    <inkscape:path-effect
       effect="spiro"
       id="path-effect3222"
       is_visible="true" />
    <inkscape:path-effect
       effect="spiro"
       id="path-effect3218"
       is_visible="true" />
    <inkscape:path-effect
       effect="spiro"
       id="path-effect3208"
       is_visible="true" />
    <inkscape:path-effect
       effect="spiro"
       id="path-effect3204"
       is_visible="true" />
    <inkscape:path-effect
       effect="spiro"
       id="path-effect3194"
       is_visible="true" />
    <inkscape:path-effect
       effect="spiro"
       id="path-effect3190"
       is_visible="true" />
    <inkscape:path-effect
       effect="spiro"
       id="path-effect3186"
       is_visible="true" />
    <inkscape:path-effect
       effect="spiro"
       id="path-effect3182"
       is_visible="true" />
    <inkscape:path-effect
       effect="spiro"
       id="path-effect3178"
       is_visible="true" />
    <inkscape:path-effect
       effect="spiro"
       id="path-effect3174"
       is_visible="true" />
    <inkscape:path-effect
       effect="spiro"
       id="path-effect3133"
       is_visible="true" />
    <inkscape:path-effect
       effect="spiro"
       id="path-effect2998"
       is_visible="true" />
    <inkscape:path-effect
       effect="spiro"
       id="path-effect2998-1"
       is_visible="true" />
    <inkscape:path-effect
       effect="spiro"
       id="path-effect2998-1-4"
       is_visible="true" />
    <inkscape:path-effect
       effect="spiro"
       id="path-effect2998-1-9"
       is_visible="true" />
    <inkscape:path-effect
       effect="spiro"
       id="path-effect2998-1-9-8"
       is_visible="true" />
    <inkscape:path-effect
       effect="spiro"
       id="path-effect2998-1-9-2"
       is_visible="true" />
  </defs>
  <sodipodi:namedview
     id="base"
     pagecolor="#ffffff"
     bordercolor="#666666"
     borderopacity="1.0"
     inkscape:pageopacity="0.0"
     inkscape:pageshadow="2"
     inkscape:zoom="3.959798"
     inkscape:cx="295.57451"
     inkscape:cy="305.42714"
     inkscape:document-units="mm"
     inkscape:current-layer="layer1"
     showgrid="true"
     guidetolerance="10000"
     objecttolerance="10000"
     showguides="true"
     inkscape:guide-bbox="true"
     inkscape:window-width="1680"
     inkscape:window-height="987"
     inkscape:window-x="-4"
     inkscape:window-y="-4"
     inkscape:window-maximized="1">
    <inkscape:grid
       type="xygrid"
       id="grid2985"
       empspacing="5"
       visible="true"
       enabled="true"
       snapvisiblegridlinesonly="true"
       units="in"
       spacingx="0.1in"
       spacingy="0.1in"
       dotted="true"
       color="#f400ff"
       opacity="0.1254902"
       empcolor="#ff00d5"
       empopacity="0.25098039" />
    <sodipodi:guide
       orientation="0,1"
       position="63.779528,318.89764"
       id="guide3135" />
    <sodipodi:guide
       orientation="0,1"
       position="63.779528,329.52756"
       id="guide3137" />
    <sodipodi:guide
       orientation="0,1"
       position="63.779528,372.04724"
       id="guide3139" />
    <sodipodi:guide
       orientation="1,0"
       position="53.149606,287.00787"
       id="guide3143" />
    <sodipodi:guide
       orientation="1,0"
       position="63.779528,276.37795"
       id="guide3145" />
    <sodipodi:guide
       orientation="1,0"
       position="106.29921,276.37795"
       id="guide3147" />
    <sodipodi:guide
       orientation="1,0"
       position="116.92913,265.74803"
       id="guide3149" />
    <sodipodi:guide
       orientation="0,1"
       position="21.259843,116.92913"
       id="guide3154" />
    <sodipodi:guide
       orientation="0,1"
       position="63.779528,106.29921"
       id="guide3156" />
    <sodipodi:guide
       orientation="0,1"
       position="74.409449,63.779528"
       id="guide3158" />
    <sodipodi:guide
       orientation="0,1"
       position="74.409449,53.149606"
       id="guide3160" />
    <sodipodi:guide
       orientation="1,0"
       position="297.6378,297.6378"
       id="guide3164" />
    <sodipodi:guide
       orientation="1,0"
       position="308.26772,297.6378"
       id="guide3166" />
    <sodipodi:guide
       orientation="1,0"
       position="350.7874,244.48819"
       id="guide3168" />
    <sodipodi:guide
       orientation="1,0"
       position="361.41732,223.22835"
       id="guide3170" />
    <inkscape:grid
       type="xygrid"
       id="grid3214"
       empspacing="5"
       visible="true"
       enabled="true"
       snapvisiblegridlinesonly="true"
       spacingx="3mm"
       spacingy="1mm"
       units="mm" />
  </sodipodi:namedview>
  <metadata
     id="metadata7">
    <rdf:RDF>
      <cc:Work
         rdf:about="">
        <dc:format>image/svg+xml</dc:format>
        <dc:type
           rdf:resource="http://purl.org/dc/dcmitype/StillImage" />
        <dc:title></dc:title>
      </cc:Work>
    </rdf:RDF>
  </metadata>
  <g
     inkscape:groupmode="layer"
     id="layer2"
     inkscape:label="outline"
     style="display:inline">
    <path
       style="fill:none;stroke:#000000;stroke-width:1px;stroke-linecap:butt;stroke-linejoin:miter;stroke-opacity:1;display:inline"
       d="m 106.29921,722.83462 0,42.51969 10.62992,0 0,31.88976 -10.62992,0 0,31.88977 10.62992,0 0,31.88976 -10.62992,0 0,21.25984 10.62992,0 0,0 0,42.51969 -10.62992,0 -21.25984,0 0,0 0,21.25984 -10.629921,0 0,-10.62992 -10.629921,0 0,-21.25984 -10.629922,0 0,-31.88977 10.629922,0 0,-31.88976 -10.629922,0 0,-31.88977 10.629922,0 0,-31.88976 -10.629922,0 0,-31.88976 10.629922,0 0,-21.25985 10.629921,0 0,-10.62992 21.259842,0 0,10.62992 10.629919,0"
       id="path3131"
       inkscape:path-effect="#path-effect3133"
       inkscape:original-d="m 106.29921,722.83462 0,42.51969 10.62992,0 0,31.88976 -10.62992,0 0,31.88977 10.62992,0 0,31.88976 -10.62992,0 0,21.25984 10.62992,0 0,0 0,42.51969 -10.62992,0 -21.25984,0 0,0 0,21.25984 -10.629921,0 0,-10.62992 -10.629921,0 0,-21.25984 -10.629922,0 0,-31.88977 10.629922,0 0,-31.88976 -10.629922,0 0,-31.88977 10.629922,0 0,-31.88976 -10.629922,0 0,-31.88976 10.629922,0 0,-21.25985 10.629921,0 0,-10.62992 21.259842,0 0,10.62992 10.629919,0"
       inkscape:connector-curvature="0"
       sodipodi:nodetypes="cccccccccccc" />
    <path
       style="fill:none;stroke:#000000;stroke-width:1px;stroke-linecap:butt;stroke-linejoin:miter;stroke-opacity:1"
       d="m 106.29921,722.83462 42.51969,0 0,10.62992 31.88976,0 0,-10.62992 53.14961,0 0,10.62992 31.88976,0 0,-10.62992 42.51969,0"
       id="path3184"
       inkscape:path-effect="#path-effect3186"
       inkscape:original-d="m 106.29921,722.83462 42.51969,0 0,10.62992 31.88976,0 0,-10.62992 53.14961,0 0,10.62992 31.88976,0 0,-10.62992 42.51969,0"
       inkscape:connector-curvature="0" />
    <path
       style="fill:none;stroke:#000000;stroke-width:1px;stroke-linecap:butt;stroke-linejoin:miter;stroke-opacity:1"
       d="m 106.29921,722.83462 0,-10.62992 10.62992,0 0,-21.25984 -10.62992,0 0,-10.62992 42.51969,0 0,-10.62992 31.88976,0 0,10.62992 53.14961,0 0,-10.62992 31.88976,0 0,10.62992 42.51969,0 0,10.62992 -10.62992,0 0,21.25984 10.62992,0 0,10.62992"
       id="path3188"
       inkscape:path-effect="#path-effect3190"
       inkscape:original-d="m 106.29921,722.83462 0,-10.62992 10.62992,0 0,-21.25984 -10.62992,0 0,-10.62992 42.51969,0 0,-10.62992 31.88976,0 0,10.62992 53.14961,0 0,-10.62992 31.88976,0 0,10.62992 42.51969,0 0,10.62992 -10.62992,0 0,21.25984 10.62992,0 0,10.62992"
       inkscape:connector-curvature="0" />
    <path
       style="fill:none;stroke:#000000;stroke-width:1px;stroke-linecap:butt;stroke-linejoin:miter;stroke-opacity:1"
       d="m 350.7874,935.43305 0,10.62992 42.51969,0 0,-10.62992 31.88976,0 0,10.62992 53.14961,0 0,-10.62992 31.88976,0 0,10.62992 42.51969,0 0,-31.88976 -10.62993,0 0,-31.88977 10.62993,0 0,-31.88976 -10.62993,0 0,-31.88977 10.62993,0 0,-31.88976 -10.62993,0 0,-31.88976 10.62993,0 0,-31.88977 -42.51969,0 0,10.62992 -31.88976,0 0,-10.62992 -53.14961,0 0,10.62992 -31.88976,0 0,-10.62992 -42.51969,0 0,10.62992"
       id="path3192"
       inkscape:path-effect="#path-effect3194"
       inkscape:original-d="m 350.7874,935.43305 0,10.62992 42.51969,0 0,-10.62992 31.88976,0 0,10.62992 53.14961,0 0,-10.62992 31.88976,0 0,10.62992 42.51969,0 0,-31.88976 -10.62993,0 0,-31.88977 10.62993,0 0,-31.88976 -10.62993,0 0,-31.88977 10.62993,0 0,-31.88976 -10.62993,0 0,-31.88976 10.62993,0 0,-31.88977 -42.51969,0 0,10.62992 -31.88976,0 0,-10.62992 -53.14961,0 0,10.62992 -31.88976,0 0,-10.62992 -42.51969,0 0,10.62992"
       inkscape:connector-curvature="0" />
    <path
       sodipodi:type="arc"
       style="fill:none;stroke:#ff0000;stroke-width:0.35433072;stroke-linecap:round;stroke-linejoin:round;stroke-miterlimit:4;stroke-opacity:1;stroke-dasharray:none"
       id="path3200"
       sodipodi:cx="207.28346"
       sodipodi:cy="717.51965"
       sodipodi:rx="5.3149605"
       sodipodi:ry="5.31496"
       d="m 201.9685,717.51965 a 5.3149605,5.31496 0 0 1 10.62992,0"
       sodipodi:start="3.1415927"
       sodipodi:end="6.2831853"
       sodipodi:open="true" />
    <path
       style="fill:none;stroke:#000000;stroke-width:1px;stroke-linecap:butt;stroke-linejoin:miter;stroke-opacity:1"
       d="m 201.9685,717.51966 0,5.31496 0,0"
       id="path3202"
       inkscape:path-effect="#path-effect3204"
       inkscape:original-d="m 201.9685,717.51966 0,5.31496 0,0"
       inkscape:connector-curvature="0" />
    <path
       style="fill:none;stroke:#000000;stroke-width:1px;stroke-linecap:butt;stroke-linejoin:miter;stroke-opacity:1"
       d="m 212.59843,717.51966 0,5.31496"
       id="path3206"
       inkscape:path-effect="#path-effect3208"
       inkscape:original-d="m 212.59843,717.51966 0,5.31496"
       inkscape:connector-curvature="0" />
  </g>
  <g
     inkscape:label="Layer 1"
     inkscape:groupmode="layer"
     id="layer1"
     style="display:inline">
    <path
       style="fill:none;stroke:#000000;stroke-width:1px;stroke-linecap:butt;stroke-linejoin:miter;stroke-opacity:1"
       d="m 116.92913,882.28344 191.33859,0 0,-21.25984 0,-10.62992 -10.62992,0 0,-31.88977 10.62992,0 0,-31.88976 -10.62992,0 0,-31.88976 10.62992,0 0,-31.88977 0,0"
       id="path3172"
       inkscape:path-effect="#path-effect3174"
       inkscape:original-d="m 116.92913,882.28344 191.33859,0 0,-21.25984 0,-10.62992 -10.62992,0 0,-31.88977 10.62992,0 0,-31.88976 -10.62992,0 0,-31.88976 10.62992,0 0,-31.88977 0,0"
       inkscape:connector-curvature="0" />
    <path
       style="fill:none;stroke:#000000;stroke-width:1px;stroke-linecap:butt;stroke-linejoin:miter;stroke-opacity:1"
       d="m 308.26772,733.46454 10.62992,0 0,-10.62992 21.25984,0 0,10.62992 10.62992,0 0,21.25985 10.62992,0 0,31.88976 -10.62992,0 0,31.88976 10.62992,0 0,31.88977 -10.62992,0 0,31.88976 10.62992,0 0,31.88977 -10.62992,0 0,21.25984 -10.62992,0 0,10.62992 -21.25984,0 0,-10.62992 -21.25984,0 0,-53.14961"
       id="path3176"
       inkscape:path-effect="#path-effect3178"
       inkscape:original-d="m 308.26772,733.46454 10.62992,0 0,-10.62992 21.25984,0 0,10.62992 10.62992,0 0,21.25985 10.62992,0 0,31.88976 -10.62992,0 0,31.88976 10.62992,0 0,31.88977 -10.62992,0 0,31.88976 10.62992,0 0,31.88977 -10.62992,0 0,21.25984 -10.62992,0 0,10.62992 -21.25984,0 0,-10.62992 -21.25984,0 0,-53.14961"
       inkscape:connector-curvature="0" />
    <path
       style="fill:none;stroke:#000000;stroke-width:1px;stroke-linecap:butt;stroke-linejoin:miter;stroke-opacity:1"
       d="m 297.6378,988.58266 0,0 10.62992,0 0,-10.62993 -10.62992,0 0,-21.25984 10.62992,0 0,-21.25984 -159.44882,0 0,31.88976 -31.88977,0 0,10.62992 -10.62992,0 0,10.62993 10.62992,0 31.88977,0 0,10.62992 21.25984,0 10.62992,0 0,-10.62992 53.14961,0 0,10.62992 31.88976,0 0,-10.62993 31.88977,1e-5"
       id="path3180"
       inkscape:path-effect="#path-effect3182"
       inkscape:original-d="m 297.6378,988.58266 0,0 10.62992,0 0,-10.62993 -10.62992,0 0,-21.25984 10.62992,0 0,-21.25984 -159.44882,0 0,31.88976 -31.88977,0 0,10.62992 -10.62992,0 0,10.62993 10.62992,0 31.88977,0 0,10.62992 21.25984,0 10.62992,0 0,-10.62992 53.14961,0 0,10.62992 31.88976,0 0,-10.62993 z"
       inkscape:connector-curvature="0"
       sodipodi:nodetypes="ccccccccccccccccccccccccc" />
    <rect
       style="fill:none;stroke:#ff0000;stroke-width:0.35433072;stroke-linecap:round;stroke-linejoin:round;stroke-miterlimit:4;stroke-opacity:1;stroke-dasharray:none"
       id="rect3224"
       width="53.149605"
       height="10.629921"
       x="233.85826"
       y="687.40155" />
  </g>
</svg>
