  0
SECTION
  2
HEADER
  9
$ACADVER
  1
AC1014
  9
$HANDSEED
  5
FFFF
  9
$MEASUREMENT
 70
     1
  0
ENDSEC
  0
SECTION
  2
TABLES
  0
TABLE
  2
VPORT
  5
8
330
0
100
AcDbSymbolTable
 70
     4
  0
VPORT
  5
2E
330
8
100
AcDbSymbolTableRecord
100
AcDbViewportTableRecord
  2
*ACTIVE
 70
     0
 10
0.0
 20
0.0
 11
1.0
 21
1.0
 12
210.0
 22
148.5
 13
0.0
 23
0.0
 14
10.0
 24
10.0
 15
10.0
 25
10.0
 16
0.0
 26
0.0
 36
1.0
 17
0.0
 27
0.0
 37
0.0
 40
341.0
 41
1.24
 42
50.0
 43
0.0
 44
0.0
 50
0.0
 51
0.0
 71
     0
 72
   100
 73
     1
 74
     3
 75
     0
 76
     0
 77
     0
 78
     0
  0
ENDTAB
  0
TABLE
  2
LTYPE
  5
5
330
0
100
AcDbSymbolTable
 70
     1
  0
LTYPE
  5
14
330
5
100
AcDbSymbolTableRecord
100
AcDbLinetypeTableRecord
  2
BYBLOCK
 70
     0
  3

 72
    65
 73
     0
 40
0.0
  0
LTYPE
  5
15
330
5
100
AcDbSymbolTableRecord
100
AcDbLinetypeTableRecord
  2
BYLAYER
 70
     0
  3

 72
    65
 73
     0
 40
0.0
  0
LTYPE
  5
16
330
5
100
AcDbSymbolTableRecord
100
AcDbLinetypeTableRecord
  2
CONTINUOUS
 70
     0
  3
Solid line
 72
    65
 73
     0
 40
0.0
  0
ENDTAB
  0
TABLE
  2
LAYER
  5
2
100
AcDbSymbolTable
 70
3
  0
LAYER
  5
50
100
AcDbSymbolTableRecord
100
AcDbLayerTableRecord
  2
0
 70
0
  6
CONTINUOUS
  0
LAYER
  5
51
100
AcDbSymbolTableRecord
100
AcDbLayerTableRecord
  2
outline
 70
0
  6
CONTINUOUS
  0
LAYER
  5
52
100
AcDbSymbolTableRecord
100
AcDbLayerTableRecord
  2
Layer_1
 70
0
  6
CONTINUOUS
  0
ENDTAB
  0
TABLE
  2
STYLE
  5
3
330
0
100
AcDbSymbolTable
 70
     1
  0
STYLE
  5
11
330
3
100
AcDbSymbolTableRecord
100
AcDbTextStyleTableRecord
  2
STANDARD
 70
     0
 40
0.0
 41
1.0
 50
0.0
 71
     0
 42
2.5
  3
txt
  4

  0
ENDTAB
  0
TABLE
  2
VIEW
  5
6
330
0
100
AcDbSymbolTable
 70
     0
  0
ENDTAB
  0
TABLE
  2
UCS
  5
7
330
0
100
AcDbSymbolTable
 70
     0
  0
ENDTAB
  0
TABLE
  2
APPID
  5
9
330
0
100
AcDbSymbolTable
 70
     2
  0
APPID
  5
12
330
9
100
AcDbSymbolTableRecord
100
AcDbRegAppTableRecord
  2
ACAD
 70
     0
  0
ENDTAB
  0
TABLE
  2
DIMSTYLE
  5
A
330
0
100
AcDbSymbolTable
 70
     1
  0
DIMSTYLE
105
27
330
A
100
AcDbSymbolTableRecord
100
AcDbDimStyleTableRecord
  2
ISO-25
 70
     0
  3

  4

  5

  6

  7

 40
1.0
 41
2.5
 42
0.625
 43
3.75
 44
1.25
 45
0.0
 46
0.0
 47
0.0
 48
0.0
140
2.5
141
2.5
142
0.0
143
0.03937007874016
144
1.0
145
0.0
146
1.0
147
0.625
 71
     0
 72
     0
 73
     0
 74
     0
 75
     0
 76
     0
 77
     1
 78
     8
170
     0
171
     3
172
     1
173
     0
174
     0
175
     0
176
     0
177
     0
178
     0
270
     2
271
     2
272
     2
273
     2
274
     3
340
11
275
     0
280
     0
281
     0
282
     0
283
     0
284
     8
285
     0
286
     0
287
     3
288
     0
  0
ENDTAB
  0
TABLE
  2
BLOCK_RECORD
  5
1
330
0
100
AcDbSymbolTable
 70
     1
  0
BLOCK_RECORD
  5
1F
330
1
100
AcDbSymbolTableRecord
100
AcDbBlockTableRecord
  2
*MODEL_SPACE
  0
BLOCK_RECORD
  5
1B
330
1
100
AcDbSymbolTableRecord
100
AcDbBlockTableRecord
  2
*PAPER_SPACE
  0
ENDTAB
  0
ENDSEC
  0
SECTION
  2
BLOCKS
  0
BLOCK
  5
20
330
1F
100
AcDbEntity
  8
0
100
AcDbBlockBegin
  2
*MODEL_SPACE
 70
     0
 10
0.0
 20
0.0
 30
0.0
  3
*MODEL_SPACE
  1

  0
ENDBLK
  5
21
330
1F
100
AcDbEntity
  8
0
100
AcDbBlockEnd
  0
BLOCK
  5
1C
330
1B
100
AcDbEntity
 67
     1
  8
0
100
AcDbBlockBegin
  2
*PAPER_SPACE
  1

  0
ENDBLK
  5
1D
330
1B
100
AcDbEntity
 67
     1
  8
0
100
AcDbBlockEnd
  0
ENDSEC
  0
SECTION
  2
ENTITIES
  0
LWPOLYLINE
  5
100
100
AcDbEntity
  8
outline
 62
7
100
AcDbPolyline
 90
38
 70
0
 10
85.039368
 20
263.622068
 30
0.0
 10
85.039368
 20
229.606316
 30
0.0
 10
93.543304
 20
229.606316
 30
0.0
 10
93.543304
 20
204.094508
 30
0.0
 10
85.039368
 20
204.094508
 30
0.0
 10
85.039368
 20
178.582692
 30
0.0
 10
93.543304
 20
178.582692
 30
0.0
 10
93.543304
 20
153.070884
 30
0.0
 10
85.039368
 20
153.070884
 30
0.0
 10
85.039368
 20
136.063012
 30
0.0
 10
93.543304
 20
136.063012
 30
0.0
 10
93.543304
 20
136.063012
 30
0.0
 10
93.543304
 20
102.047260
 30
0.0
 10
85.039368
 20
102.047260
 30
0.0
 10
68.031496
 20
102.047260
 30
0.0
 10
68.031496
 20
102.047260
 30
0.0
 10
68.031496
 20
85.039388
 30
0.0
 10
59.527559
 20
85.039388
 30
0.0
 10
59.527559
 20
93.543324
 30
0.0
 10
51.023622
 20
93.543324
 30
0.0
 10
51.023622
 20
110.551196
 30
0.0
 10
42.519685
 20
110.551196
 30
0.0
 10
42.519685
 20
136.063012
 30
0.0
 10
51.023622
 20
136.063012
 30
0.0
 10
51.023622
 20
161.574820
 30
0.0
 10
42.519685
 20
161.574820
 30
0.0
 10
42.519685
 20
187.086636
 30
0.0
 10
51.023622
 20
187.086636
 30
0.0
 10
51.023622
 20
212.598444
 30
0.0
 10
42.519685
 20
212.598444
 30
0.0
 10
42.519685
 20
238.110252
 30
0.0
 10
51.023622
 20
238.110252
 30
0.0
 10
51.023622
 20
255.118132
 30
0.0
 10
59.527559
 20
255.118132
 30
0.0
 10
59.527559
 20
263.622068
 30
0.0
 10
76.535433
 20
263.622068
 30
0.0
 10
76.535433
 20
255.118132
 30
0.0
 10
85.039368
 20
255.118132
 30
0.0
  0
LWPOLYLINE
  5
101
100
AcDbEntity
  8
outline
 62
7
100
AcDbPolyline
 90
10
 70
0
 10
85.039368
 20
263.622068
 30
0.0
 10
119.055120
 20
263.622068
 30
0.0
 10
119.055120
 20
255.118132
 30
0.0
 10
144.566928
 20
255.118132
 30
0.0
 10
144.566928
 20
263.622068
 30
0.0
 10
187.086616
 20
263.622068
 30
0.0
 10
187.086616
 20
255.118132
 30
0.0
 10
212.598424
 20
255.118132
 30
0.0
 10
212.598424
 20
263.622068
 30
0.0
 10
246.614176
 20
263.622068
 30
0.0
  0
LWPOLYLINE
  5
102
100
AcDbEntity
  8
outline
 62
7
100
AcDbPolyline
 90
20
 70
0
 10
85.039368
 20
263.622068
 30
0.0
 10
85.039368
 20
272.126004
 30
0.0
 10
93.543304
 20
272.126004
 30
0.0
 10
93.543304
 20
289.133876
 30
0.0
 10
85.039368
 20
289.133876
 30
0.0
 10
85.039368
 20
297.637812
 30
0.0
 10
119.055120
 20
297.637812
 30
0.0
 10
119.055120
 20
306.141748
 30
0.0
 10
144.566928
 20
306.141748
 30
0.0
 10
144.566928
 20
297.637812
 30
0.0
 10
187.086616
 20
297.637812
 30
0.0
 10
187.086616
 20
306.141748
 30
0.0
 10
212.598424
 20
306.141748
 30
0.0
 10
212.598424
 20
297.637812
 30
0.0
 10
246.614176
 20
297.637812
 30
0.0
 10
246.614176
 20
289.133876
 30
0.0
 10
238.110240
 20
289.133876
 30
0.0
 10
238.110240
 20
272.126004
 30
0.0
 10
246.614176
 20
272.126004
 30
0.0
 10
246.614176
 20
263.622068
 30
0.0
  0
SPLINE
  5
103
100
AcDbEntity
  8
outline
 62
1
100
AcDbSpline
 70
8
 71
3
 72
8
 73
4
 74
0
 40
0
 40
0
 40
0
 40
0
 40
1
 40
1
 40
1
 40
1
 10
161.574800
 20
267.874044
 30
0.0
 10
161.575818
 20
270.221620
 30
0.0
 10
163.479191
 20
272.124167
 30
0.0
 10
165.826768
 20
272.124167
 30
0.0
  0
SPLINE
  5
104
100
AcDbEntity
  8
outline
 62
1
100
AcDbSpline
 70
8
 71
3
 72
8
 73
4
 74
0
 40
0
 40
0
 40
0
 40
0
 40
1
 40
1
 40
1
 40
1
 10
165.826768
 20
272.124167
 30
0.0
 10
168.174345
 20
272.124167
 30
0.0
 10
170.077718
 20
270.221620
 30
0.0
 10
170.078736
 20
267.874044
 30
0.0
  0
LWPOLYLINE
  5
105
100
AcDbEntity
  8
outline
 62
7
100
AcDbPolyline
 90
34
 70
0
 10
280.629920
 20
93.543324
 30
0.0
 10
280.629920
 20
85.039388
 30
0.0
 10
314.645672
 20
85.039388
 30
0.0
 10
314.645672
 20
93.543324
 30
0.0
 10
340.157480
 20
93.543324
 30
0.0
 10
340.157480
 20
85.039388
 30
0.0
 10
382.677168
 20
85.039388
 30
0.0
 10
382.677168
 20
93.543324
 30
0.0
 10
408.188976
 20
93.543324
 30
0.0
 10
408.188976
 20
85.039388
 30
0.0
 10
442.204728
 20
85.039388
 30
0.0
 10
442.204728
 20
110.551196
 30
0.0
 10
433.700784
 20
110.551196
 30
0.0
 10
433.700784
 20
136.063012
 30
0.0
 10
442.204728
 20
136.063012
 30
0.0
 10
442.204728
 20
161.574820
 30
0.0
 10
433.700784
 20
161.574820
 30
0.0
 10
433.700784
 20
187.086636
 30
0.0
 10
442.204728
 20
187.086636
 30
0.0
 10
442.204728
 20
212.598444
 30
0.0
 10
433.700784
 20
212.598444
 30
0.0
 10
433.700784
 20
238.110252
 30
0.0
 10
442.204728
 20
238.110252
 30
0.0
 10
442.204728
 20
263.622068
 30
0.0
 10
408.188976
 20
263.622068
 30
0.0
 10
408.188976
 20
255.118132
 30
0.0
 10
382.677168
 20
255.118132
 30
0.0
 10
382.677168
 20
263.622068
 30
0.0
 10
340.157480
 20
263.622068
 30
0.0
 10
340.157480
 20
255.118132
 30
0.0
 10
314.645672
 20
255.118132
 30
0.0
 10
314.645672
 20
263.622068
 30
0.0
 10
280.629920
 20
263.622068
 30
0.0
 10
280.629920
 20
255.118132
 30
0.0
  0
LWPOLYLINE
  5
106
100
AcDbEntity
  8
outline
 62
7
100
AcDbPolyline
 90
3
 70
0
 10
161.574800
 20
267.874036
 30
0.0
 10
161.574800
 20
263.622068
 30
0.0
 10
161.574800
 20
263.622068
 30
0.0
  0
LWPOLYLINE
  5
107
100
AcDbEntity
  8
outline
 62
7
100
AcDbPolyline
 90
2
 70
0
 10
170.078744
 20
267.874036
 30
0.0
 10
170.078744
 20
263.622068
 30
0.0
  0
LWPOLYLINE
  5
108
100
AcDbEntity
  8
Layer_1
 62
7
100
AcDbPolyline
 90
13
 70
0
 10
93.543304
 20
136.063012
 30
0.0
 10
246.614176
 20
136.063012
 30
0.0
 10
246.614176
 20
153.070884
 30
0.0
 10
246.614176
 20
161.574820
 30
0.0
 10
238.110240
 20
161.574820
 30
0.0
 10
238.110240
 20
187.086636
 30
0.0
 10
246.614176
 20
187.086636
 30
0.0
 10
246.614176
 20
212.598444
 30
0.0
 10
238.110240
 20
212.598444
 30
0.0
 10
238.110240
 20
238.110252
 30
0.0
 10
246.614176
 20
238.110252
 30
0.0
 10
246.614176
 20
263.622068
 30
0.0
 10
246.614176
 20
263.622068
 30
0.0
  0
LWPOLYLINE
  5
109
100
AcDbEntity
  8
Layer_1
 62
7
100
AcDbPolyline
 90
25
 70
0
 10
246.614176
 20
255.118132
 30
0.0
 10
255.118112
 20
255.118132
 30
0.0
 10
255.118112
 20
263.622068
 30
0.0
 10
272.125984
 20
263.622068
 30
0.0
 10
272.125984
 20
255.118132
 30
0.0
 10
280.629920
 20
255.118132
 30
0.0
 10
280.629920
 20
238.110252
 30
0.0
 10
289.133856
 20
238.110252
 30
0.0
 10
289.133856
 20
212.598444
 30
0.0
 10
280.629920
 20
212.598444
 30
0.0
 10
280.629920
 20
187.086636
 30
0.0
 10
289.133856
 20
187.086636
 30
0.0
 10
289.133856
 20
161.574820
 30
0.0
 10
280.629920
 20
161.574820
 30
0.0
 10
280.629920
 20
136.063012
 30
0.0
 10
289.133856
 20
136.063012
 30
0.0
 10
289.133856
 20
110.551196
 30
0.0
 10
280.629920
 20
110.551196
 30
0.0
 10
280.629920
 20
93.543324
 30
0.0
 10
272.125984
 20
93.543324
 30
0.0
 10
272.125984
 20
85.039388
 30
0.0
 10
255.118112
 20
85.039388
 30
0.0
 10
255.118112
 20
93.543324
 30
0.0
 10
238.110240
 20
93.543324
 30
0.0
 10
238.110240
 20
136.063012
 30
0.0
  0
LWPOLYLINE
  5
10a
100
AcDbEntity
  8
Layer_1
 62
7
100
AcDbPolyline
 90
25
 70
0
 10
238.110240
 20
51.023636
 30
0.0
 10
238.110240
 20
51.023636
 30
0.0
 10
246.614176
 20
51.023636
 30
0.0
 10
246.614176
 20
59.527580
 30
0.0
 10
238.110240
 20
59.527580
 30
0.0
 10
238.110240
 20
76.535452
 30
0.0
 10
246.614176
 20
76.535452
 30
0.0
 10
246.614176
 20
93.543324
 30
0.0
 10
119.055120
 20
93.543324
 30
0.0
 10
119.055120
 20
68.031516
 30
0.0
 10
93.543304
 20
68.031516
 30
0.0
 10
93.543304
 20
59.527580
 30
0.0
 10
85.039368
 20
59.527580
 30
0.0
 10
85.039368
 20
51.023636
 30
0.0
 10
93.543304
 20
51.023636
 30
0.0
 10
119.055120
 20
51.023636
 30
0.0
 10
119.055120
 20
42.519700
 30
0.0
 10
136.062992
 20
42.519700
 30
0.0
 10
144.566928
 20
42.519700
 30
0.0
 10
144.566928
 20
51.023636
 30
0.0
 10
187.086616
 20
51.023636
 30
0.0
 10
187.086616
 20
42.519700
 30
0.0
 10
212.598424
 20
42.519700
 30
0.0
 10
212.598424
 20
51.023644
 30
0.0
 10
238.110240
 20
51.023636
 30
0.0
  0
LWPOLYLINE
  5
10b
100
AcDbEntity
  8
Layer_1
 62
1
100
AcDbPolyline
 90
5
 70
0
 10
187.086608
 20
291.968524
 30
0.0
 10
229.606292
 20
291.968524
 30
0.0
 10
229.606292
 20
283.464587
 30
0.0
 10
187.086608
 20
283.464587
 30
0.0
 10
187.086608
 20
291.968524
 30
0.0
  0
ENDSEC
  0
SECTION
  2
OBJECTS
  0
DICTIONARY
  5
C
330
0
100
AcDbDictionary
  3
ACAD_GROUP
350
D
  3
ACAD_MLINESTYLE
350
17
  0
DICTIONARY
  5
D
330
C
100
AcDbDictionary
  0
DICTIONARY
  5
1A
330
C
100
AcDbDictionary
  0
DICTIONARY
  5
17
330
C
100
AcDbDictionary
  3
STANDARD
350
18
  0
DICTIONARY
  5
19
330
C
100
AcDbDictionary
  0
ENDSEC
  0
EOF
